inDegrees=yes
nColumns=22
nRows=13
DataType=double
version=3
OpenSimVersion=4.5
endheader
time	pelvis_tilt	pelvis_list	pelvis_rotation	pelvis_tx	pelvis_ty	pelvis_tz	hip_flexion_r	hip_adduction_r	hip_rotation_r	knee_angle_r	ankle_angle_r	mtp_angle_r	hip_flexion_l	hip_adduction_l	hip_rotation_l	knee_angle_l	ankle_angle_l	mtp_angle_l	lumbar_extension	lumbar_bending	lumbar_rotation
0	-2.903085065762725	2.338031413944154	3.34171022760866	0	0.9426188333372126	-0.001083860587169766	30.83990253088078	-5.284042107421695	-10.480460144807	-9.60392873258421	-7.153358684264376	0	-10.74591497048193	3.868880834476535	-7.590974279538854	-12.07663123583909	16.3679134586402	0	-7.884434012359516	-4.026190813831658	-5.906622826452928
0.01187842222668354	-2.867470434643954	1.900844603304281	3.475873473463415	0.01519228307266975	0.9419132965998507	-0.0002811635363561576	30.64496760217515	-4.69104188840754	-9.38394905194653	-11.10038141893201	-6.564640759941648	0	-11.05290380475614	3.142565527876962	-7.466121730979803	-13.20962565040131	15.71793072792913	0	-7.753879404303673	-3.284051110234898	-5.885988043580372
0.02375684445336709	-2.883640690111748	1.517725729336909	3.72296144232504	0.03107474989536474	0.9416361534620949	0.0005695815392352379	30.11857151611985	-4.142949469507741	-8.4947382490531	-12.15010817299908	-5.46526265032237	0	-11.23504622123004	2.427959551078717	-7.263951822670911	-14.47685149844543	14.76164922779202	0	-7.473425581730796	-2.640284421745273	-5.926237696020793
0.03563526668005063	-2.966570634859417	1.074936568831747	4.039725468733683	0.0471832811298891	0.9419035018078311	0.001484068158269851	29.45064469705983	-3.543490377187429	-7.839440856163186	-12.73115848415824	-4.955685520777025	0	-11.14401018443764	1.608443316805599	-7.036722389329719	-16.04514541874601	13.53246471837407	0	-7.09095355070124	-1.95048462723606	-5.989848093746312
0.04751368890673417	-3.114782297501289	0.4851922392242332	4.370514279262563	0.06325985161012126	0.9427508404386507	0.002492787667840517	28.72878951585247	-2.800143482056621	-7.360271124811926	-12.90309880302229	-5.225036492192588	0	-10.68499529427774	0.6002705114402459	-6.812869072905919	-18.04851134430467	12.05586357396944	0	-6.638803122839492	-1.100185998944495	-6.030314693386295
0.05939211113341772	-3.305500410185827	-0.1773543239375163	4.662068592369042	0.07917971897714571	0.9441345408749742	0.003638217863999398	28.05077479199471	-1.984643297812186	-6.979837047688747	-12.99800090339801	-5.631304004475649	0	-9.831709177044113	-0.5092959548777023	-6.580214269824152	-20.56622534761589	10.28535010131057	0	-6.160784006429641	-0.169170105545822	-6.025770375614067
0.07127053336010125	-3.504786404830242	-0.7550028606755259	4.871248257989241	0.09486495936036753	0.9459750341044916	0.004957918540635686	27.50349109788606	-1.260830937633744	-6.681504795817808	-13.36075801419455	-5.543287280181752	0	-8.590652054376084	-1.546484976821471	-6.297020977406478	-23.66075198890749	8.165831371731162	0	-5.710904900546687	0.6618556463001773	-5.966822747975982
0.0831489555867848	-3.688866245852695	-1.151118613589596	4.965759981374116	0.1103003623013237	0.948171957452481	0.006495691343459615	27.0341636209988	-0.7140676933512351	-6.475129187015249	-13.9235001053839	-5.085817879455219	0	-6.961858644367178	-2.399944862265978	-5.862328023409023	-27.4028219076724	5.732271554368964	0	-5.3147028029193	1.277107240081507	-5.835796578524132
0.09502737781346834	-3.847408523141475	-1.401323579835729	4.944744632438041	0.1254348316145533	0.9505451001769859	0.008245831285676646	26.57330095736506	-0.2870922169234534	-6.311532746755073	-14.55574778288611	-4.350222110719598	0	-4.931526784783141	-3.082268898402178	-5.181800571078643	-31.91051815271609	3.73485852491877	0	-4.97923069483414	1.716363133524867	-5.622652329505176
0.1069058000401519	-3.977935469202853	-1.564939928171986	4.831526258742197	0.1402904030489839	0.9529033335951784	0.01012269903535249	26.06013429834254	0.08312296802429561	-6.161112167090811	-15.15034583200656	-3.409642612718111	0	-2.586708926840592	-3.609671479021159	-4.264038808265407	-37.04487801903939	2.493569420546955	0	-4.690839883559983	2.049949299262738	-5.333135785602017
0.1187842222668354	-4.082352193378803	-1.696128222565036	4.64945394159515	0.1549387413568791	0.9550833314606321	0.01205966337584271	25.46545689620386	0.4418043644061293	-6.0406510929218	-15.6350246436816	-2.405593831123602	0	-0.1046723214370116	-4.01468828767014	-3.207989687435745	-42.4466805736612	2.002190799636629	0	-4.426649289536824	2.336917519183844	-4.975547187907585
0.130662644493519	-4.16460993763202	-1.93261808604751	4.437732090063755	0.1694635756785383	0.9570489435861639	0.01402191745230884	24.76196993768834	0.9133639954373395	-6.015397688993111	-15.93304996027402	-1.43838472396378	0	2.342743936199946	-4.506284667919107	-2.236941297855963	-47.64777207011786	1.689505221086475	0	-4.160855651066296	2.73324764618266	-4.568871846729886
0.1425410667202025	-4.223435565510403	-2.253209767508	4.231767087058497	0.1839361631914866	0.9589349318969677	0.01603935215576337	23.89113250563351	1.472258678256449	-6.114272874097873	-15.94383427925445	-0.5879518635456161	0	4.63860184911305	-5.142355442993905	-1.486198909108942	-52.21358815035524	0.8512992166749831	0	-3.894258915890602	3.195492135202418	-4.139964345204275
